# xmcd CD database file
#
# Track frame offsets:
#	150
#	18055
#	38585
#	52587
#	70700
#	92370
#	112960
#	123512
#	141425
#	162147
#	172427
#	183652
#	202502
#	213285
#	236640
#
# Disc length: 3425 seconds
#
# Revision: 1
# Processed by: cddbd v1.5.2PL0 Copyright (c) Steve Scherf et al.
# Submitted via: CDex 1.51
#
DISCID=bd0d5f0f
DTITLE=Jelly Roll Kings - Rockin' The Juke Joint Down
DYEAR=1993
DGENRE=Blues
TTITLE0=I Didn't Know
TTITLE1=Road Of Love
TTITLE2=Soul Love
TTITLE3=Mighty Long Time
TTITLE4=Honeydrippin' Boogie
TTITLE5=Something On Your Mind
TTITLE6=Jelly Roll King
TTITLE7=Catfish Blues
TTITLE8=Cleo's Back
TTITLE9=Slop Jar Blues
TTITLE10=Jelly Roll Stroll
TTITLE11=Have Mercy Baby
TTITLE12=Sunshine Twist (You Are My Sunshine)
TTITLE13=Just A Dream (Just A Feeling)
TTITLE14=Burnt Biscuits
EXTD=YEAR: 1993
EXTT0=
EXTT1=
EXTT2=
EXTT3=
EXTT4=
EXTT5=
EXTT6=
EXTT7=
EXTT8=
EXTT9=
EXTT10=
EXTT11=
EXTT12=
EXTT13=
EXTT14=
PLAYORDER=
